# xmcd
#
# Track frame offsets: 
#        150
#        14820
#        30912
#        47947
#        61310
#        75812
#        94930
#        107132
#        127930
#        144080
#        159042
#        173500
#        198117
#
# Disc length: 2830 seconds
#
# Revision: 2
# Processed by: cddbd v1.5.2PL0 Copyright (c) Steve Scherf et al.
# Submitted via: ExactAudioCopy v0.99pb4
#
DISCID=900b0c0d
DTITLE=Carey Bell and Tough Luck - Mellow Down Easy
DYEAR=1991
DGENRE=Blues
TTITLE0=Short Dress Woman
TTITLE1=Delta Time
TTITLE2=Five Long Years
TTITLE3=Mellow Down Easy
TTITLE4=For the Love of a Woman
TTITLE5=Just Like You
TTITLE6=Walkin' Thru the Park
TTITLE7=St. Louis Blues
TTITLE8=That Spot Right There
TTITLE9=Big Walter Strut
TTITLE10=One Day
TTITLE11=So Easy to Love You
TTITLE12=Walkin' by Myself
EXTD=
EXTT0=
EXTT1=
EXTT2=
EXTT3=
EXTT4=
EXTT5=
EXTT6=
EXTT7=
EXTT8=
EXTT9=
EXTT10=
EXTT11=
EXTT12=
PLAYORDER=
